<svg width="24" height="24" viewBox="0 0 24 24" fill="none" xmlns="http://www.w3.org/2000/svg">
<path d="M17.9993 15.6973C18.0126 15.7047 18.0073 15.7251 17.9921 15.7251V15.7251C17.9806 15.7251 17.9735 15.7127 17.9793 15.7028L22.9152 7.20938C22.9551 7.14078 23.0592 7.1613 23.07 7.23989V7.23989V20C23.07 21.1046 22.1746 22 21.07 22H3C1.89543 22 1 21.1046 1 20V3.69649C1 3.08705 1.49405 2.59299 2.1035 2.59299V2.59299C2.71295 2.59299 3.207 3.08705 3.207 3.69649V16.1132V16.1132C3.207 16.085 3.21459 16.0573 3.22898 16.033L9.27625 5.82749V5.82749C9.2705 5.8372 9.27373 5.84974 9.28346 5.85546L16.1577 9.89816C16.1631 9.90131 16.1692 9.90297 16.1754 9.90297V9.90297C16.1874 9.90297 16.1985 9.89678 16.2049 9.88659L20.5661 2.89985C20.8803 2.39661 21.5349 2.22992 22.0515 2.52164V2.52164C22.5924 2.82711 22.7767 3.51738 22.46 4.0518L17.2668 12.8167C17.266 12.8181 17.2656 12.8195 17.2656 12.8211V12.8211C17.2656 12.8275 17.2586 12.8316 17.253 12.8284L10.1997 8.80697C10.183 8.79746 10.1641 8.79245 10.1449 8.79245V8.79245C10.1058 8.79245 10.0696 8.81311 10.0497 8.84677L3.57181 19.8052C3.55773 19.829 3.53211 19.8437 3.50443 19.8437V19.8437L5.96575 19.8437V19.8437C6.01364 19.8437 6.05799 19.8184 6.08246 19.7773L10.8526 11.7512C10.8688 11.724 10.9078 11.7227 10.9257 11.749V11.749C10.9295 11.7545 10.9346 11.7591 10.9404 11.7624L17.9993 15.6973Z" fill="url(#paint0_linear_201_11)"/>
<defs>
<linearGradient id="paint0_linear_201_11" x1="2" y1="5.5" x2="27" y2="19.5" gradientUnits="userSpaceOnUse">
<stop stop-color="#033087"/>
<stop offset="1" stop-color="#89CEFF"/>
</linearGradient>
</defs>
</svg>
