<svg width="24" height="24" viewBox="0 0 24 24" fill="none" xmlns="http://www.w3.org/2000/svg">
<path fill-rule="evenodd" clip-rule="evenodd" d="M8.03521 2.27868C6.96828 1.9928 5.87161 2.62596 5.58572 3.6929L2.27848 16.0357C1.9926 17.1026 2.62576 18.1993 3.6927 18.4852L16.0355 21.7924C17.1024 22.0783 18.1991 21.4451 18.485 20.3782L21.7922 8.03541C22.0781 6.96848 21.4449 5.8718 20.378 5.58592L8.03521 2.27868ZM9.17147 10.1716C10.276 10.1716 11.1715 9.27614 11.1715 8.17157C11.1715 7.067 10.276 6.17157 9.17147 6.17157C8.0669 6.17157 7.17147 7.067 7.17147 8.17157C7.17147 9.27614 8.0669 10.1716 9.17147 10.1716ZM17.1715 16.1716C17.1715 17.2761 16.276 18.1716 15.1715 18.1716C14.0669 18.1716 13.1715 17.2761 13.1715 16.1716C13.1715 15.067 14.0669 14.1716 15.1715 14.1716C16.276 14.1716 17.1715 15.067 17.1715 16.1716ZM17.5468 7.65403C17.0116 7.01525 16.0598 6.93134 15.421 7.46661L7.32809 14.2481C6.68931 14.7834 6.6054 15.7352 7.14067 16.3739C7.67593 17.0127 8.62769 17.0966 9.26647 16.5614L17.3594 9.77983C17.9982 9.24457 18.0821 8.29281 17.5468 7.65403Z" fill="url(#paint0_linear_23_2)"/>
<path fill-rule="evenodd" clip-rule="evenodd" d="M13.4498 1.58579C12.6687 0.804738 11.4024 0.804738 10.6213 1.58579L1.58579 10.6213C0.804738 11.4024 0.804738 12.6687 1.58579 13.4498L10.6213 22.4853C11.4024 23.2663 12.6687 23.2663 13.4498 22.4853L22.4853 13.4498C23.2663 12.6687 23.2663 11.4024 22.4853 10.6213L13.4498 1.58579ZM9.17152 10.1716C10.2761 10.1716 11.1715 9.27614 11.1715 8.17157C11.1715 7.067 10.2761 6.17157 9.17152 6.17157C8.06695 6.17157 7.17152 7.067 7.17152 8.17157C7.17152 9.27614 8.06695 10.1716 9.17152 10.1716ZM17.1715 16.1716C17.1715 17.2761 16.2761 18.1716 15.1715 18.1716C14.067 18.1716 13.1715 17.2761 13.1715 16.1716C13.1715 15.067 14.067 14.1716 15.1715 14.1716C16.2761 14.1716 17.1715 15.067 17.1715 16.1716ZM17.5469 7.65404C17.0116 7.01526 16.0599 6.93135 15.4211 7.46662L7.32814 14.2481C6.68936 14.7834 6.60545 15.7352 7.14072 16.3739C7.67599 17.0127 8.62774 17.0966 9.26652 16.5614L17.3595 9.77984C17.9982 9.24457 18.0822 8.29282 17.5469 7.65404Z" fill="url(#paint1_linear_23_2)"/>
<path fill-rule="evenodd" clip-rule="evenodd" d="M18.4852 3.69288C18.1993 2.62595 17.1027 1.99278 16.0357 2.27867L3.69294 5.58591C2.62601 5.87179 1.99284 6.96846 2.27873 8.03539L5.58597 20.3782C5.87185 21.4451 6.96852 22.0783 8.03546 21.7924L20.3782 18.4851C21.4452 18.1993 22.0783 17.1026 21.7924 16.0357L18.4852 3.69288ZM9.17155 10.1716C10.2761 10.1716 11.1715 9.27614 11.1715 8.17157C11.1715 7.067 10.2761 6.17157 9.17155 6.17157C8.06698 6.17157 7.17155 7.067 7.17155 8.17157C7.17155 9.27614 8.06698 10.1716 9.17155 10.1716ZM17.1715 16.1716C17.1715 17.2761 16.2761 18.1716 15.1715 18.1716C14.067 18.1716 13.1715 17.2761 13.1715 16.1716C13.1715 15.067 14.067 14.1716 15.1715 14.1716C16.2761 14.1716 17.1715 15.067 17.1715 16.1716ZM17.5469 7.65403C17.0116 7.01525 16.0599 6.93134 15.4211 7.46661L7.32817 14.2481C6.68939 14.7834 6.60548 15.7352 7.14074 16.3739C7.67601 17.0127 8.62776 17.0966 9.26654 16.5614L17.3595 9.77983C17.9983 9.24457 18.0822 8.29281 17.5469 7.65403Z" fill="url(#paint2_linear_23_2)"/>
<defs>
<linearGradient id="paint0_linear_23_2" x1="-0.753686" y1="7.25972" x2="22.3954" y2="19.2795" gradientUnits="userSpaceOnUse">
<stop stop-color="#033087"/>
<stop offset="1" stop-color="#89CEFF"/>
</linearGradient>
<linearGradient id="paint1_linear_23_2" x1="-2.32849" y1="6.67157" x2="23.6715" y2="20.1716" gradientUnits="userSpaceOnUse">
<stop stop-color="#033087"/>
<stop offset="1" stop-color="#89CEFF"/>
</linearGradient>
<linearGradient id="paint2_linear_23_2" x1="-0.753442" y1="7.25971" x2="22.3957" y2="19.2794" gradientUnits="userSpaceOnUse">
<stop stop-color="#033087"/>
<stop offset="1" stop-color="#89CEFF"/>
</linearGradient>
</defs>
</svg>
