<svg width="21" height="20" viewBox="0 0 21 20" fill="none" xmlns="http://www.w3.org/2000/svg">
<path d="M20.77 16.32L19.7 15.5C19.72 15.33 19.74 15.17 19.74 15C19.74 14.83 19.73 14.67 19.7 14.5L20.76 13.68C20.8049 13.6415 20.8354 13.5887 20.8463 13.5306C20.8572 13.4724 20.8479 13.4122 20.82 13.36L19.82 11.63C19.76 11.5 19.63 11.5 19.5 11.5L18.27 12C18 11.82 17.73 11.65 17.42 11.53L17.23 10.21C17.2237 10.153 17.1969 10.1003 17.1546 10.0617C17.1122 10.023 17.0573 10.0011 17 10H15C14.9389 9.99886 14.8793 10.0193 14.8318 10.0577C14.7843 10.0961 14.7518 10.15 14.74 10.21L14.55 11.53C14.25 11.66 13.96 11.82 13.7 12L12.46 11.5C12.35 11.5 12.22 11.5 12.15 11.63L11.15 13.36C11.09 13.47 11.11 13.6 11.21 13.68L12.27 14.5C12.2301 14.8321 12.2301 15.1679 12.27 15.5L11.21 16.32C11.1651 16.3585 11.1346 16.4113 11.1237 16.4694C11.1128 16.5276 11.1221 16.5878 11.15 16.64L12.15 18.37C12.21 18.5 12.34 18.5 12.46 18.5L13.7 18C13.96 18.18 14.24 18.35 14.55 18.47L14.74 19.79C14.76 19.91 14.86 20 15 20H17C17.11 20 17.22 19.91 17.24 19.79L17.43 18.47C17.73 18.34 18 18.18 18.27 18L19.5 18.5C19.63 18.5 19.76 18.5 19.83 18.37L20.83 16.64C20.8579 16.5878 20.8672 16.5276 20.8563 16.4694C20.8454 16.4113 20.8149 16.3585 20.77 16.32ZM16 16.5C15.16 16.5 14.5 15.83 14.5 15C14.5 14.17 15.17 13.5 16 13.5C16.83 13.5 17.5 14.17 17.5 15C17.5 15.83 16.83 16.5 16 16.5ZM15.62 0.22C15.43 0.08 15.22 0 15 0H1.00001C0.780009 0 0.570009 0.08 0.380009 0.22C0.172444 0.383546 0.038051 0.622602 0.0061969 0.88493C-0.0256572 1.14726 0.0476174 1.41153 0.210009 1.62L5.00001 7.75V12.87C4.96001 13.16 5.06001 13.47 5.29001 13.7L9.30001 17.71C9.40001 17.81 9.50001 17.88 9.65001 17.93C9.22001 17 9.00001 16 9.00001 15C9.00001 13.17 9.72001 11.41 11 10.1V7.75L15.79 1.62C15.9524 1.41153 16.0257 1.14726 15.9938 0.88493C15.962 0.622602 15.8276 0.383546 15.62 0.22ZM9.00001 7.05V14.58L7.00001 12.58V7.06L3.04001 2H12.96L9.00001 7.05Z" fill="black"/>
</svg>
