<svg width="24" height="24" viewBox="0 0 24 24" fill="none" xmlns="http://www.w3.org/2000/svg">
<rect x="4" y="2" width="2" height="20" rx="1" fill="url(#paint0_linear_22_2)"/>
<path d="M18 3.5C18 3.22386 18.2239 3 18.5 3C18.7761 3 19 3.22386 19 3.5V11.5C19 11.7761 18.7761 12 18.5 12C18.2239 12 18 11.7761 18 11.5V3.5Z" fill="url(#paint1_linear_22_2)"/>
<path d="M15.5 6C15.7761 6 16 6.22386 16 6.5V6.5C16 6.77614 15.7761 7 15.5 7L8.5 7C8.22386 7 8 6.77614 8 6.5V6.5C8 6.22386 8.22386 6 8.5 6L15.5 6Z" fill="url(#paint2_linear_22_2)"/>
<path d="M12.5 9C12.7761 9 13 9.22386 13 9.5V9.5C13 9.77614 12.7761 10 12.5 10L8.5 10C8.22386 10 8 9.77614 8 9.5V9.5C8 9.22386 8.22386 9 8.5 9L12.5 9Z" fill="url(#paint3_linear_22_2)"/>
<path d="M23 17.5C23 19.9853 20.9853 22 18.5 22C16.0147 22 14 19.9853 14 17.5C14 15.0147 16.0147 13 18.5 13C20.9853 13 23 15.0147 23 17.5ZM14.7842 17.5C14.7842 19.5522 16.4478 21.2158 18.5 21.2158C20.5522 21.2158 22.2158 19.5522 22.2158 17.5C22.2158 15.4478 20.5522 13.7842 18.5 13.7842C16.4478 13.7842 14.7842 15.4478 14.7842 17.5Z" fill="url(#paint4_linear_22_2)"/>
<path d="M18.0909 15.0454C18.0909 14.8195 18.274 14.6364 18.5 14.6364C18.7259 14.6364 18.9091 14.8195 18.9091 15.0454V17.5C18.9091 17.7259 18.7259 17.9091 18.5 17.9091C18.274 17.9091 18.0909 17.7259 18.0909 17.5V15.0454Z" fill="url(#paint5_linear_22_2)"/>
<path d="M18.4596 17.9419C18.2697 17.8194 18.2151 17.5662 18.3375 17.3764C18.46 17.1865 18.7132 17.1319 18.9031 17.2543L20.9657 18.5849C21.1556 18.7073 21.2102 18.9605 21.0877 19.1504C20.9652 19.3403 20.7121 19.3949 20.5222 19.2724L18.4596 17.9419Z" fill="url(#paint6_linear_22_2)"/>
<rect x="18.0909" y="17.0909" width="0.818182" height="0.818182" rx="0.409091" fill="url(#paint7_linear_22_2)"/>
<path d="M2 20H4.46153V21H14.3077C15.2308 21 15.2308 22 14.3077 22H4.46154C3.10207 22 2 21.1046 2 20Z" fill="url(#paint8_linear_22_2)"/>
<path d="M5 2C4.44772 2 4 2.44772 4 3V4C4 4.55228 4.44772 5 5 5H5.5C5.77614 5 6 4.77614 6 4.5C6 3.67157 6.67157 3 7.5 3C8.32843 3 9 3.67157 9 4.5C9 4.77614 9.22386 5 9.5 5H20.5C21.3284 5 22 4.32843 22 3.5C22 2.67157 21.3284 2 20.5 2H5Z" fill="url(#paint9_linear_22_2)"/>
<path d="M10.75 15.625H10.375V13.875H10.5C10.7318 13.8758 10.9539 13.9683 11.1178 14.1322C11.2817 14.2961 11.3742 14.5182 11.375 14.75C11.375 14.8495 11.4145 14.9448 11.4848 15.0152C11.5552 15.0855 11.6505 15.125 11.75 15.125C11.8495 15.125 11.9448 15.0855 12.0152 15.0152C12.0855 14.9448 12.125 14.8495 12.125 14.75C12.125 14.319 11.9538 13.9057 11.649 13.601C11.3443 13.2962 10.931 13.125 10.5 13.125H10.375V12.75C10.375 12.6505 10.3355 12.5552 10.2652 12.4848C10.1948 12.4145 10.0995 12.375 10 12.375C9.90054 12.375 9.80516 12.4145 9.73483 12.4848C9.66451 12.5552 9.625 12.6505 9.625 12.75V13.125H9.375C8.94402 13.125 8.5307 13.2962 8.22595 13.601C7.9212 13.9057 7.75 14.319 7.75 14.75C7.75 15.181 7.9212 15.5943 8.22595 15.899C8.5307 16.2038 8.94402 16.375 9.375 16.375H9.625V18.125H9.25C9.01819 18.1242 8.79611 18.0317 8.63219 17.8678C8.46828 17.7039 8.37582 17.4818 8.375 17.25C8.375 17.1505 8.33549 17.0552 8.26517 16.9848C8.19484 16.9145 8.09946 16.875 8 16.875C7.90054 16.875 7.80516 16.9145 7.73483 16.9848C7.66451 17.0552 7.625 17.1505 7.625 17.25C7.625 17.681 7.7962 18.0943 8.10095 18.399C8.4057 18.7038 8.81902 18.875 9.25 18.875H9.625V19.25C9.625 19.3495 9.66451 19.4448 9.73483 19.5152C9.80516 19.5855 9.90054 19.625 10 19.625C10.0995 19.625 10.1948 19.5855 10.2652 19.5152C10.3355 19.4448 10.375 19.3495 10.375 19.25V18.875H10.75C11.181 18.875 11.5943 18.7038 11.899 18.399C12.2038 18.0943 12.375 17.681 12.375 17.25C12.375 16.819 12.2038 16.4057 11.899 16.101C11.5943 15.7962 11.181 15.625 10.75 15.625V15.625ZM9.375 15.625C9.14294 15.625 8.92038 15.5328 8.75628 15.3687C8.59219 15.2046 8.5 14.9821 8.5 14.75C8.5 14.5179 8.59219 14.2954 8.75628 14.1313C8.92038 13.9672 9.14294 13.875 9.375 13.875H9.625V15.625H9.375ZM10.75 18.125H10.375V16.375H10.75C10.9821 16.375 11.2046 16.4672 11.3687 16.6313C11.5328 16.7954 11.625 17.0179 11.625 17.25C11.625 17.4821 11.5328 17.7046 11.3687 17.8687C11.2046 18.0328 10.9821 18.125 10.75 18.125V18.125Z" fill="url(#paint10_linear_22_2)"/>
<defs>
<linearGradient id="paint0_linear_22_2" x1="5" y1="21" x2="5" y2="4" gradientUnits="userSpaceOnUse">
<stop stop-color="#033087"/>
<stop offset="1" stop-color="#033087"/>
</linearGradient>
<linearGradient id="paint1_linear_22_2" x1="11" y1="4.5" x2="22.5" y2="12" gradientUnits="userSpaceOnUse">
<stop stop-color="#033087"/>
<stop offset="1" stop-color="#89CEFF"/>
</linearGradient>
<linearGradient id="paint2_linear_22_2" x1="7.5" y1="9" x2="21" y2="6" gradientUnits="userSpaceOnUse">
<stop stop-color="#033087"/>
<stop offset="1" stop-color="#89CEFF"/>
</linearGradient>
<linearGradient id="paint3_linear_22_2" x1="8" y1="10" x2="14.5" y2="9" gradientUnits="userSpaceOnUse">
<stop stop-color="#033087"/>
<stop offset="0.912476" stop-color="#89CEFF"/>
</linearGradient>
<linearGradient id="paint4_linear_22_2" x1="22.5" y1="18" x2="13.5" y2="18" gradientUnits="userSpaceOnUse">
<stop stop-color="#89CEFF"/>
<stop offset="1" stop-color="#033087"/>
</linearGradient>
<linearGradient id="paint5_linear_22_2" x1="18.8636" y1="16.4545" x2="18.0454" y2="16.4545" gradientUnits="userSpaceOnUse">
<stop stop-color="#89CEFF"/>
<stop offset="1" stop-color="#033087"/>
</linearGradient>
<linearGradient id="paint6_linear_22_2" x1="20.0625" y1="18.0564" x2="19.619" y2="18.7439" gradientUnits="userSpaceOnUse">
<stop stop-color="#89CEFF"/>
<stop offset="1" stop-color="#033087"/>
</linearGradient>
<linearGradient id="paint7_linear_22_2" x1="18.8636" y1="17.5455" x2="18.0454" y2="17.5455" gradientUnits="userSpaceOnUse">
<stop stop-color="#89CEFF"/>
<stop offset="1" stop-color="#033087"/>
</linearGradient>
<linearGradient id="paint8_linear_22_2" x1="3.5" y1="21.5" x2="26.5" y2="21.5" gradientUnits="userSpaceOnUse">
<stop offset="0.3125" stop-color="#033087"/>
<stop offset="1" stop-color="#89CEFF"/>
</linearGradient>
<linearGradient id="paint9_linear_22_2" x1="9" y1="6.5" x2="19.5" y2="12.5" gradientUnits="userSpaceOnUse">
<stop offset="0.158907" stop-color="#033087"/>
<stop offset="1" stop-color="#89CEFF"/>
</linearGradient>
<linearGradient id="paint10_linear_22_2" x1="8" y1="14" x2="15" y2="16.5" gradientUnits="userSpaceOnUse">
<stop stop-color="#033087"/>
<stop offset="1" stop-color="#89CEFF"/>
</linearGradient>
</defs>
</svg>
