<svg width="24" height="24" viewBox="0 0 24 24" fill="none" xmlns="http://www.w3.org/2000/svg">
<path d="M15.875 2.5H14.6225C14.4672 2.06119 14.1798 1.68132 13.7996 1.41268C13.4195 1.14404 12.9655 0.999866 12.5 1H8C7.53454 0.999866 7.08048 1.14404 6.70036 1.41268C6.32024 1.68132 6.03276 2.06119 5.8775 2.5H4.625C3.92881 2.5 3.26113 2.77656 2.76884 3.26885C2.27656 3.76113 2 4.42881 2 5.125V19.375C2 20.0712 2.27656 20.7389 2.76884 21.2312C3.26113 21.7234 3.92881 22 4.625 22H8.7845C8.72754 21.7196 8.73575 21.4299 8.8085 21.1532L9.40175 18.865C9.53447 18.3531 9.79513 17.8834 10.1593 17.5H6.5C6.30109 17.5 6.11032 17.421 5.96967 17.2803C5.82902 17.1397 5.75 16.9489 5.75 16.75C5.75 16.5511 5.82902 16.3603 5.96967 16.2197C6.11032 16.079 6.30109 16 6.5 16H11.645L16.634 10.9705C17.1366 10.4619 17.7921 10.1321 18.5 10.0315V5.125C18.5 4.42881 18.2234 3.76113 17.7312 3.26885C17.2389 2.77656 16.5712 2.5 15.875 2.5ZM8 2.5H12.5C12.6989 2.5 12.8897 2.57902 13.0303 2.71967C13.171 2.86032 13.25 3.05109 13.25 3.25C13.25 3.44891 13.171 3.63968 13.0303 3.78033C12.8897 3.92098 12.6989 4 12.5 4H8C7.80109 4 7.61032 3.92098 7.46967 3.78033C7.32902 3.63968 7.25 3.44891 7.25 3.25C7.25 3.05109 7.32902 2.86032 7.46967 2.71967C7.61032 2.57902 7.80109 2.5 8 2.5ZM5.75 9.25C5.75 9.05109 5.82902 8.86032 5.96967 8.71967C6.11032 8.57902 6.30109 8.5 6.5 8.5H14C14.1989 8.5 14.3897 8.57902 14.5303 8.71967C14.671 8.86032 14.75 9.05109 14.75 9.25C14.75 9.44891 14.671 9.63968 14.5303 9.78033C14.3897 9.92098 14.1989 10 14 10H6.5C6.30109 10 6.11032 9.92098 5.96967 9.78033C5.82902 9.63968 5.75 9.44891 5.75 9.25ZM6.5 12.25H10.25C10.4489 12.25 10.6397 12.329 10.7803 12.4697C10.921 12.6103 11 12.8011 11 13C11 13.1989 10.921 13.3897 10.7803 13.5303C10.6397 13.671 10.4489 13.75 10.25 13.75H6.5C6.30109 13.75 6.11032 13.671 5.96967 13.5303C5.82902 13.3897 5.75 13.1989 5.75 13C5.75 12.8011 5.82902 12.6103 5.96967 12.4697C6.11032 12.329 6.30109 12.25 6.5 12.25ZM20.489 14.8187L14.0292 21.226C13.7652 21.4877 13.4367 21.6745 13.0767 21.7668L10.8118 22.3503C10.6853 22.3829 10.5525 22.382 10.4265 22.3476C10.3004 22.3132 10.1856 22.2464 10.0933 22.154C10.001 22.0616 9.93448 21.9466 9.90026 21.8206C9.86605 21.6945 9.86536 21.5617 9.89825 21.4352L10.4907 19.147C10.5792 18.805 10.757 18.493 11.006 18.2425L17.4335 11.7625C17.6342 11.5619 17.8724 11.4027 18.1346 11.2942C18.3968 11.1856 18.6777 11.1298 18.9615 11.1298C19.2453 11.1298 19.5263 11.1858 19.7884 11.2944C20.0506 11.403 20.2887 11.5622 20.4894 11.7629C20.69 11.9636 20.8491 12.2018 20.9577 12.464C21.0663 12.7261 21.1221 13.0071 21.1221 13.2909C21.122 13.5747 21.0661 13.8556 20.9575 14.1178C20.8489 14.3799 20.6897 14.6181 20.489 14.8187Z" fill="url(#paint0_linear_24_2)"/>
<defs>
<linearGradient id="paint0_linear_24_2" x1="21" y1="18" x2="-5" y2="2.5" gradientUnits="userSpaceOnUse">
<stop stop-color="#89CEFF"/>
<stop offset="0.560091" stop-color="#033087"/>
</linearGradient>
</defs>
</svg>
