<svg width="28" height="28" viewBox="0 0 28 28" fill="none" xmlns="http://www.w3.org/2000/svg">
<path d="M5 5H10.3125C8.55209 5 7.125 6.41777 7.125 8.16667L7 21L8 22L9 21L10 22L11 21L12 22L13 21L14 22L15 21L16 22L17 21L18 22L19 21L20 22L21 21C21 21 21 6.94578 21 6.5C21 5.5 22 5 22 5H23V21L20 24L19 23L18 24L17 23L16 24L15 23L14 24L13 23L12 24L11 23L10 24L9 23L8 24L5 21V5Z" fill="white"/>
<path d="M2 5C2 3.89543 2.93436 3 4.08696 3H23.913C25.0656 3 26 3.89543 26 5C26 6.10457 25.0656 7 23.913 7H21C21.0016 6.85002 21 6.68332 21 6.5C21 5.5 23 5 23 5H9.99771C8.6347 5 7.22974 5.83481 6.8 7H4.08696C2.93436 7 2 6.10457 2 5Z" fill="white"/>
<rect x="8" y="9" width="10" height="2" rx="1" fill="white"/>
<path d="M8 14.5C8 14.0858 8.33579 13.75 8.75 13.75H14.25C14.6642 13.75 15 14.0858 15 14.5V14.5C15 14.9142 14.6642 15.25 14.25 15.25H8.75C8.33579 15.25 8 14.9142 8 14.5V14.5Z" fill="white"/>
</svg>
