<svg width="32" height="32" viewBox="0 0 32 32" fill="none" xmlns="http://www.w3.org/2000/svg">
<path d="M4.08337 5.5C3.84026 5.5 3.6071 5.57902 3.43519 5.71967C3.26328 5.86032 3.16671 6.05109 3.16671 6.25V10.75C3.16671 10.9489 3.07013 11.1397 2.89822 11.2803C2.72631 11.421 2.49316 11.5 2.25004 11.5C2.00693 11.5 1.77377 11.421 1.60186 11.2803C1.42995 11.1397 1.33337 10.9489 1.33337 10.75V6.25C1.33337 5.65326 1.62311 5.08097 2.13883 4.65901C2.65456 4.23705 3.35403 4 4.08337 4H9.58337C9.82649 4 10.0596 4.07902 10.2316 4.21967C10.4035 4.36032 10.5 4.55109 10.5 4.75C10.5 4.94891 10.4035 5.13968 10.2316 5.28033C10.0596 5.42098 9.82649 5.5 9.58337 5.5H4.08337ZM21.5 4.75C21.5 4.55109 21.5966 4.36032 21.7685 4.21967C21.9404 4.07902 22.1736 4 22.4167 4H27.9167C28.6461 4 29.3455 4.23705 29.8613 4.65901C30.377 5.08097 30.6667 5.65326 30.6667 6.25V10.75C30.6667 10.9489 30.5701 11.1397 30.3982 11.2803C30.2263 11.421 29.9932 11.5 29.75 11.5C29.5069 11.5 29.2738 11.421 29.1019 11.2803C28.93 11.1397 28.8334 10.9489 28.8334 10.75V6.25C28.8334 6.05109 28.7368 5.86032 28.5649 5.71967C28.393 5.57902 28.1598 5.5 27.9167 5.5H22.4167C22.1736 5.5 21.9404 5.42098 21.7685 5.28033C21.5966 5.13968 21.5 4.94891 21.5 4.75ZM2.25004 20.5C2.49316 20.5 2.72631 20.579 2.89822 20.7197C3.07013 20.8603 3.16671 21.0511 3.16671 21.25V25.75C3.16671 25.9489 3.26328 26.1397 3.43519 26.2803C3.6071 26.421 3.84026 26.5 4.08337 26.5H9.58337C9.82649 26.5 10.0596 26.579 10.2316 26.7197C10.4035 26.8603 10.5 27.0511 10.5 27.25C10.5 27.4489 10.4035 27.6397 10.2316 27.7803C10.0596 27.921 9.82649 28 9.58337 28H4.08337C3.35403 28 2.65456 27.7629 2.13883 27.341C1.62311 26.919 1.33337 26.3467 1.33337 25.75L1.33337 21.25C1.33337 21.0511 1.42995 20.8603 1.60186 20.7197C1.77377 20.579 2.00693 20.5 2.25004 20.5ZM29.75 20.5C29.9932 20.5 30.2263 20.579 30.3982 20.7197C30.5701 20.8603 30.6667 21.0511 30.6667 21.25V25.75C30.6667 26.3467 30.377 26.919 29.8613 27.341C29.3455 27.7629 28.6461 28 27.9167 28H22.4167C22.1736 28 21.9404 27.921 21.7685 27.7803C21.5966 27.6397 21.5 27.4489 21.5 27.25C21.5 27.0511 21.5966 26.8603 21.7685 26.7197C21.9404 26.579 22.1736 26.5 22.4167 26.5H27.9167C28.1598 26.5 28.393 26.421 28.5649 26.2803C28.7368 26.1397 28.8334 25.9489 28.8334 25.75V21.25C28.8334 21.0511 28.93 20.8603 29.1019 20.7197C29.2738 20.579 29.5069 20.5 29.75 20.5ZM6.83337 10.75C6.83337 10.5511 6.92995 10.3603 7.10186 10.2197C7.27377 10.079 7.50693 10 7.75004 10C7.99316 10 8.22631 10.079 8.39822 10.2197C8.57013 10.3603 8.66671 10.5511 8.66671 10.75V21.25C8.66671 21.4489 8.57013 21.6397 8.39822 21.7803C8.22631 21.921 7.99316 22 7.75004 22C7.50693 22 7.27377 21.921 7.10186 21.7803C6.92995 21.6397 6.83337 21.4489 6.83337 21.25V10.75ZM10.5 10.75C10.5 10.5511 10.5966 10.3603 10.7685 10.2197C10.9404 10.079 11.1736 10 11.4167 10C11.6598 10 11.893 10.079 12.0649 10.2197C12.2368 10.3603 12.3334 10.5511 12.3334 10.75V21.25C12.3334 21.4489 12.2368 21.6397 12.0649 21.7803C11.893 21.921 11.6598 22 11.4167 22C11.1736 22 10.9404 21.921 10.7685 21.7803C10.5966 21.6397 10.5 21.4489 10.5 21.25V10.75ZM14.1667 10.75C14.1667 10.5511 14.2633 10.3603 14.4352 10.2197C14.6071 10.079 14.8403 10 15.0834 10C15.3265 10 15.5596 10.079 15.7316 10.2197C15.9035 10.3603 16 10.5511 16 10.75V21.25C16 21.4489 15.9035 21.6397 15.7316 21.7803C15.5596 21.921 15.3265 22 15.0834 22C14.8403 22 14.6071 21.921 14.4352 21.7803C14.2633 21.6397 14.1667 21.4489 14.1667 21.25V10.75ZM17.8334 10.75C17.8334 10.5511 17.93 10.3603 18.1019 10.2197C18.2738 10.079 18.5069 10 18.75 10H20.5834C20.8265 10 21.0596 10.079 21.2316 10.2197C21.4035 10.3603 21.5 10.5511 21.5 10.75V21.25C21.5 21.4489 21.4035 21.6397 21.2316 21.7803C21.0596 21.921 20.8265 22 20.5834 22H18.75C18.5069 22 18.2738 21.921 18.1019 21.7803C17.93 21.6397 17.8334 21.4489 17.8334 21.25V10.75ZM23.3334 10.75C23.3334 10.5511 23.43 10.3603 23.6019 10.2197C23.7738 10.079 24.0069 10 24.25 10C24.4932 10 24.7263 10.079 24.8982 10.2197C25.0701 10.3603 25.1667 10.5511 25.1667 10.75V21.25C25.1667 21.4489 25.0701 21.6397 24.8982 21.7803C24.7263 21.921 24.4932 22 24.25 22C24.0069 22 23.7738 21.921 23.6019 21.7803C23.43 21.6397 23.3334 21.4489 23.3334 21.25V10.75Z" fill="#DBE8E1"/>
</svg>
