<svg width="24" height="24" viewBox="0 0 24 24" fill="none" xmlns="http://www.w3.org/2000/svg">
<path d="M13.6666 12.127V14.6667H11.1333V12.127H13.6666ZM13.6666 8.32953V10.8603H11.1333V8.32953H13.6666ZM9.86665 8.32953H7.33331V10.8603H9.86665V8.32953ZM9.86665 12.127H7.33331V14.6667H9.86665V12.127Z" fill="url(#paint0_linear_22_71)"/>
<path fill-rule="evenodd" clip-rule="evenodd" d="M2.82322 2.5565C2.4669 2.91282 2.26672 3.39609 2.26672 3.9V19.1C2.26672 19.6039 2.4669 20.0872 2.82322 20.4435C3.17954 20.7998 3.66281 21 4.16672 21H12.0876C11.9529 20.6248 12.0514 20.1892 12.3691 19.9102L12.7388 19.5855C12.6058 19.3353 12.4966 19.0705 12.4143 18.7941H12C11.4477 18.7941 11 18.3464 11 17.7941V17.3235C11 16.7712 11.4477 16.3235 12 16.3235H12.4143C12.4539 16.1907 12.4996 16.0605 12.5513 15.9333H6.06672V7.06287H14.9334V13.5512C15.0605 13.4996 15.1907 13.4539 15.3235 13.4143V13C15.3235 12.4477 15.7712 12 16.3235 12H16.7941C17.3464 12 17.7941 12.4477 17.7941 13V13.4143C18.057 13.4926 18.3094 13.5951 18.5487 13.7194L18.7334 13.5573V6.17113L14.5623 2H4.16672C3.66281 2 3.17954 2.20018 2.82322 2.5565Z" fill="url(#paint1_linear_22_71)"/>
<rect x="15.3235" y="12" width="2.47059" height="2.47059" rx="1" fill="#134295"/>
<rect x="11" y="16.3235" width="2.47059" height="2.47059" rx="1" fill="#1F51A0"/>
<rect x="19.6472" y="16.3235" width="2.47059" height="2.47059" rx="1" fill="#74B5EB"/>
<rect x="15.3235" y="20.647" width="2.47059" height="2.47059" rx="1" fill="#72B3EA"/>
<rect x="11.6177" y="20.57" width="2.69143" height="2.47059" rx="1" transform="rotate(-41.2876 11.6177 20.57)" fill="#0876C6"/>
<path d="M20.4134 21.7302C20.026 22.1238 19.3929 22.1288 18.9993 21.7413L18.5065 21.2563C18.1129 20.8688 18.108 20.2357 18.4954 19.8421L18.8255 19.5068C19.213 19.1132 19.8461 19.1082 20.2397 19.4956L20.7324 19.9807C21.126 20.3681 21.131 21.0013 20.7436 21.3949L20.4134 21.7302Z" fill="#74B5EC"/>
<rect x="13.5356" y="16.2664" width="2.69143" height="2.47059" rx="1" transform="rotate(-135.451 13.5356 16.2664)" fill="#09378C"/>
<rect x="17.7927" y="14.3833" width="2.69143" height="2.47059" rx="1" transform="rotate(-41.2876 17.7927 14.3833)" fill="#3369B2"/>
<path d="M20.8823 17.5588C20.8823 19.9466 18.9466 21.8823 16.5588 21.8823C14.171 21.8823 12.2353 19.9466 12.2353 17.5588C12.2353 15.171 14.171 13.2353 16.5588 13.2353C18.9466 13.2353 20.8823 15.171 20.8823 17.5588ZM14.3973 17.5588C14.3973 18.7526 15.365 19.7204 16.5588 19.7204C17.7526 19.7204 18.7204 18.7526 18.7204 17.5588C18.7204 16.365 17.7526 15.3973 16.5588 15.3973C15.365 15.3973 14.3973 16.365 14.3973 17.5588Z" fill="url(#paint2_linear_22_71)"/>
<defs>
<linearGradient id="paint0_linear_22_71" x1="3.99994" y1="5" x2="17.9999" y2="15" gradientUnits="userSpaceOnUse">
<stop stop-color="#033087"/>
<stop offset="1" stop-color="#89CEFF"/>
</linearGradient>
<linearGradient id="paint1_linear_22_71" x1="3" y1="4.5" x2="18.5" y2="17" gradientUnits="userSpaceOnUse">
<stop stop-color="#033087"/>
<stop offset="1" stop-color="#89CEFF"/>
</linearGradient>
<linearGradient id="paint2_linear_22_71" x1="18.9999" y1="20" x2="13.4999" y2="14.5" gradientUnits="userSpaceOnUse">
<stop stop-color="#89CEFF"/>
<stop offset="1" stop-color="#033087"/>
</linearGradient>
</defs>
</svg>
