<svg width="24" height="24" viewBox="0 0 24 24" fill="none" xmlns="http://www.w3.org/2000/svg">
<path d="M22.8 6.6C22.8 8.03217 22.2311 9.40568 21.2184 10.4184C20.2057 11.4311 18.8322 12 17.4 12C15.9679 12 14.5943 11.4311 13.5816 10.4184C12.569 9.40568 12 8.03217 12 6.6C12 5.16783 12.569 3.79432 13.5816 2.78162C14.5943 1.76892 15.9679 1.2 17.4 1.2C18.8322 1.2 20.2057 1.76892 21.2184 2.78162C22.2311 3.79432 22.8 5.16783 22.8 6.6V6.6ZM18 4.2C18 4.04087 17.9368 3.88825 17.8243 3.77573C17.7118 3.66321 17.5592 3.6 17.4 3.6C17.2409 3.6 17.0883 3.66321 16.9758 3.77573C16.8632 3.88825 16.8 4.04087 16.8 4.2V6H15C14.8409 6 14.6883 6.06321 14.5758 6.17573C14.4632 6.28826 14.4 6.44087 14.4 6.6C14.4 6.75913 14.4632 6.91174 14.5758 7.02426C14.6883 7.13678 14.8409 7.2 15 7.2H16.8V9C16.8 9.15913 16.8632 9.31174 16.9758 9.42426C17.0883 9.53678 17.2409 9.6 17.4 9.6C17.5592 9.6 17.7118 9.53678 17.8243 9.42426C17.9368 9.31174 18 9.15913 18 9V7.2H19.8C19.9592 7.2 20.1118 7.13678 20.2243 7.02426C20.3368 6.91174 20.4 6.75913 20.4 6.6C20.4 6.44087 20.3368 6.28826 20.2243 6.17573C20.1118 6.06321 19.9592 6 19.8 6H18V4.2ZM17.4 13.2C18.996 13.2 20.46 12.6336 21.6 11.6916V16.2C21.6 16.6774 21.4104 17.1352 21.0728 17.4728C20.7353 17.8104 20.2774 18 19.8 18H18V19.8C18 20.2774 17.8104 20.7352 17.4728 21.0728C17.1353 21.4104 16.6774 21.6 16.2 21.6H7.80002C7.32263 21.6 6.8648 21.4104 6.52723 21.0728C6.18967 20.7352 6.00002 20.2774 6.00002 19.8V18H4.20002C3.72263 18 3.2648 17.8104 2.92723 17.4728C2.58967 17.1352 2.40002 16.6774 2.40002 16.2V10.2C2.40002 9.40435 2.71609 8.64129 3.2787 8.07868C3.84131 7.51607 4.60438 7.2 5.40002 7.2H6.00002V6.6C6.00002 6.12261 6.18967 5.66477 6.52723 5.3272C6.8648 4.98964 7.32263 4.8 7.80002 4.8H11.0484C10.9374 5.19225 10.8631 5.59398 10.8264 6H7.80002C7.64089 6 7.48828 6.06321 7.37576 6.17573C7.26324 6.28826 7.20002 6.44087 7.20002 6.6V7.2H10.8264C10.9761 8.8399 11.7335 10.3646 12.9497 11.4747C14.166 12.5849 15.7533 13.2002 17.4 13.2V13.2ZM7.20002 15V19.8C7.20002 19.9591 7.26324 20.1117 7.37576 20.2243C7.48828 20.3368 7.64089 20.4 7.80002 20.4H16.2C16.3592 20.4 16.5118 20.3368 16.6243 20.2243C16.7368 20.1117 16.8 19.9591 16.8 19.8V15C16.8 14.8409 16.7368 14.6883 16.6243 14.5757C16.5118 14.4632 16.3592 14.4 16.2 14.4H7.80002C7.64089 14.4 7.48828 14.4632 7.37576 14.5757C7.26324 14.6883 7.20002 14.8409 7.20002 15Z" fill="url(#paint0_linear_22_206)"/>
<defs>
<linearGradient id="paint0_linear_22_206" x1="3" y1="22" x2="23" y2="2.5" gradientUnits="userSpaceOnUse">
<stop stop-color="#033087"/>
<stop offset="1" stop-color="#89CEFF"/>
</linearGradient>
</defs>
</svg>
